<?xml version="1.0" encoding="UTF-8" standalone="no"?>
<!-- Created with Inkscape (http://www.inkscape.org/) -->

<svg
   width="63.18742mm"
   height="59.266666mm"
   viewBox="0 0 63.18742 59.266666"
   version="1.1"
   id="svg5"
   xml:space="preserve"
   inkscape:export-filename="logo-main.png"
   inkscape:export-xdpi="96"
   inkscape:export-ydpi="96"
   inkscape:version="1.2.1 (0f2f062aeb, 2022-09-21, custom)"
   sodipodi:docname="main-logo.svg"
   xmlns:inkscape="http://www.inkscape.org/namespaces/inkscape"
   xmlns:sodipodi="http://sodipodi.sourceforge.net/DTD/sodipodi-0.dtd"
   xmlns="http://www.w3.org/2000/svg"
   xmlns:svg="http://www.w3.org/2000/svg"><sodipodi:namedview
     id="namedview7"
     pagecolor="#505050"
     bordercolor="#ffffff"
     borderopacity="1"
     inkscape:showpageshadow="0"
     inkscape:pageopacity="0"
     inkscape:pagecheckerboard="1"
     inkscape:deskcolor="#505050"
     inkscape:document-units="mm"
     showgrid="false"
     inkscape:zoom="0.70199214"
     inkscape:cx="-337.61062"
     inkscape:cy="446.58619"
     inkscape:window-width="1920"
     inkscape:window-height="1016"
     inkscape:window-x="0"
     inkscape:window-y="0"
     inkscape:window-maximized="1"
     inkscape:current-layer="layer1" /><defs
     id="defs2" /><g
     inkscape:label="Layer 1"
     inkscape:groupmode="layer"
     id="layer1"
     transform="translate(-103.8075,-30.953519)"><path
       style="fill:#000000;stroke-width:0.264583"
       d="m 111.85466,89.710671 c -2.30703,-0.793869 -2.66894,-1.004747 -4.26188,-2.483347 -3.8095,-3.536048 -4.81302,-8.974762 -2.69425,-14.601931 0.38019,-1.009753 2.84163,-6.015513 3.64283,-7.408333 0.33484,-0.582083 1.14362,-2.070365 1.7973,-3.307292 0.65367,-1.236927 1.78729,-3.380052 2.51915,-4.7625 0.73185,-1.382448 1.92305,-3.644635 2.64709,-5.027083 6.44905,-12.313392 6.63123,-12.640351 8.392,-15.061191 3.06599,-4.215351 6.62009,-6.105475 11.48046,-6.105475 4.93852,0 8.30974,1.764952 11.43407,5.98613 1.80618,2.440282 1.96447,2.723336 8.48883,15.180536 0.72404,1.382448 1.91524,3.644635 2.64709,5.027083 0.73186,1.382448 1.86548,3.525573 2.51916,4.7625 0.65367,1.236927 1.46245,2.725209 1.79729,3.307292 0.8012,1.39282 3.26264,6.39858 3.64284,7.408333 2.11049,5.605219 1.11322,11.067635 -2.66009,14.570305 -2.36611,2.196396 -4.624,3.024487 -8.24663,3.024487 -4.43323,0 -7.49725,-1.266042 -12.03272,-4.971865 -1.07469,-0.87811 -2.70786,-1.964134 -3.62926,-2.413389 -1.47303,-0.718222 -1.94811,-0.81683 -3.93536,-0.81683 -1.98725,0 -2.46233,0.09861 -3.93536,0.81683 -0.9214,0.449255 -2.55456,1.535279 -3.62926,2.413389 -3.25209,2.657205 -4.94598,3.614986 -7.91266,4.474088 -2.2205,0.643014 -6.18464,0.637252 -8.07064,-0.01175 z m 8.57103,-4.978262 c 0.81573,-0.375232 2.01892,-1.111665 2.67377,-1.636514 0.65484,-0.524849 1.66687,-1.305883 2.24895,-1.73563 0.58209,-0.429749 1.25843,-0.964705 1.50299,-1.188791 0.6839,-0.626658 3.6406,-2.026637 5.06439,-2.397961 1.68715,-0.440008 5.25847,-0.42323 7.06536,0.03319 1.89213,0.477949 3.91754,1.556287 6.22936,3.316534 1.12812,0.858956 2.43911,1.593045 3.30333,1.849691 1.31817,0.391454 1.5418,0.391197 2.79298,-0.0032 2.21056,-0.69682 3.54264,-2.414344 3.54264,-4.56774 0,-0.634461 -0.1061,-1.360308 -0.23577,-1.612996 -0.12966,-0.252687 -1.08741,-2.185836 -2.12832,-4.295888 -1.04092,-2.110052 -2.43935,-4.84849 -3.10763,-6.085417 -0.66827,-1.236927 -1.83796,-3.439583 -2.59931,-4.894792 -0.76134,-1.455208 -1.65578,-3.122083 -1.98763,-3.704166 -0.33186,-0.582084 -1.26265,-2.30849 -2.06842,-3.836459 -2.51594,-4.770902 -2.90656,-5.423958 -3.24431,-5.423958 -0.81383,0 -1.67524,2.792585 -1.06506,3.452813 0.2557,0.276674 1.16326,1.914675 3.0712,5.54302 0.68869,1.309688 1.57986,2.976563 1.98038,3.704167 0.40053,0.727604 1.44388,2.692135 2.31856,4.365625 0.87468,1.67349 2.28267,4.352396 3.12886,5.953125 2.90729,5.499706 3.08978,5.932561 2.90852,6.898738 -0.092,0.490193 -0.42706,1.073277 -0.74467,1.295741 -1.08542,0.760256 -2.13542,0.507971 -4.27512,-1.027192 -2.29233,-1.644671 -5.20099,-3.130428 -7.27899,-3.718136 -1.93287,-0.546661 -6.39632,-0.537658 -8.25597,0.01667 -2.22507,0.663234 -5.00992,2.098921 -7.13935,3.680577 -4.55946,3.386605 -6.12934,4.101859 -8.99831,4.099718 -1.7328,-0.0013 -2.88986,-0.325551 -4.76469,-1.335259 -1.33804,-0.720619 -1.57949,-0.67745 -1.26451,0.226084 0.54967,1.5768 3.06893,3.603858 4.77019,3.838215 1.95215,0.26892 5.04086,-0.112562 6.55658,-0.809792 z m 38.40678,0.05482 c 1.4379,-0.907708 2.07265,-1.579459 2.84638,-3.012305 0.56687,-1.049776 0.65285,-1.543309 0.64232,-3.686733 -0.007,-1.425998 -0.13514,-2.597682 -0.30236,-2.764896 -0.1596,-0.159604 -0.29428,-0.474736 -0.29929,-0.700294 -0.005,-0.225557 -0.57746,-1.541198 -1.27213,-2.923645 -1.16162,-2.311739 -1.99345,-3.893733 -4.8344,-9.194271 -2.57507,-4.804487 -3.1869,-5.959232 -4.80139,-9.061979 -6.70276,-12.881479 -7.30753,-13.87326 -9.15514,-15.013749 -1.13859,-0.702831 -3.11396,-0.797345 -4.26157,-0.203898 -1.67841,0.867942 -2.10723,1.588035 -9.92889,16.672855 -0.90545,1.74625 -2.38792,4.60375 -3.29439,6.35 -0.90646,1.74625 -1.75664,3.288109 -1.8893,3.426354 -0.69086,0.719984 0.56223,0.950725 1.46303,0.269399 0.28247,-0.213654 0.7229,-0.388461 0.97872,-0.388461 0.551,0 1.58254,-1.284978 2.34807,-2.924982 0.30193,-0.646832 0.76197,-1.533247 1.02232,-1.96981 0.45712,-0.766553 1.95244,-3.591137 5.35763,-10.120312 1.3964,-2.677486 2.65051,-5.02784 3.77649,-7.077604 0.65975,-1.201033 1.03234,-1.455209 2.1332,-1.455209 1.639,0 1.58223,-0.06698 4.37284,5.159375 0.54391,1.018646 1.46601,2.745052 2.04913,3.836458 0.58311,1.091407 1.32849,2.460625 1.65639,3.042709 0.3279,0.582083 1.10141,2.010833 1.71891,3.175 0.6175,1.164166 1.6928,3.188229 2.38955,4.497916 2.97008,5.582857 6.01907,11.54012 6.83853,13.361459 0.78213,1.738346 1.18336,4.086812 0.93363,5.464648 -0.33908,1.870792 -1.00837,3.530947 -1.86558,4.627592 -0.4145,0.530264 -0.75363,1.03628 -0.75363,1.124479 0,0.383003 1.15362,0.106852 2.13093,-0.510096 z m -40.34479,-7.670206 c 0.73775,-0.46868 1.74978,-1.207121 2.24896,-1.640983 1.89977,-1.651164 5.57552,-3.663068 8.05136,-4.406865 0.87312,-0.262305 1.95314,-0.585012 2.40003,-0.717121 1.13412,-0.33527 7.41666,-0.300927 8.56139,0.0468 0.51966,0.15785 1.47238,0.457785 2.11716,0.666523 0.64478,0.208737 1.2708,0.281056 1.39114,0.160707 0.12035,-0.120348 -0.13983,-0.880993 -0.57818,-1.690319 -0.76179,-1.406494 -0.86909,-1.491729 -2.42884,-1.929374 -3.29527,-0.924605 -9.59925,-0.542501 -12.78562,0.774973 -0.43656,0.180507 -1.21047,0.487569 -1.71979,0.682363 -0.50932,0.194794 -1.37016,0.629372 -1.91297,0.965732 -0.54281,0.336357 -1.03682,0.61156 -1.09779,0.61156 -0.13094,0 -2.22225,1.428676 -4.9548,3.384868 -2.12737,1.522949 -2.71402,1.601404 -3.87455,0.518149 -0.7965,-0.743468 -0.7833,-2.222055 0.033,-3.695192 0.34557,-0.623625 1.43441,-2.681679 2.41967,-4.57345 0.98525,-1.891771 2.3834,-4.570677 3.10699,-5.953125 0.72358,-1.382448 2.09199,-4.001823 3.0409,-5.820833 1.88832,-3.619799 3.51254,-6.716859 5.55031,-10.583333 0.7286,-1.382448 1.76116,-3.342312 2.29459,-4.355252 0.53342,-1.012941 1.14419,-2.034347 1.35726,-2.269792 0.48508,-0.535999 0.49984,-1.047873 0.0302,-1.047873 -0.50466,0 -2.25249,1.325648 -3.35153,2.541978 -1.60785,1.779446 -2.62699,3.562037 -8.53036,14.920522 -1.02103,1.964531 -2.18032,4.167188 -2.57619,4.894792 -0.39587,0.727604 -1.40838,2.632604 -2.25002,4.233333 -0.84164,1.600729 -1.95206,3.684323 -2.46761,4.630208 -1.70618,3.130325 -1.96793,3.810447 -2.08527,5.418111 -0.19305,2.645188 1.23785,4.732888 3.54321,5.169543 1.56322,0.296093 3.00161,-0.0055 4.46734,-0.936649 z m 20.1458,-14.845789 c 0.0514,-0.154225 -0.3029,-0.98326 -0.78736,-1.842294 -0.48445,-0.859033 -1.15672,-2.133541 -1.49393,-2.83224 -0.3825,-0.792554 -0.76018,-1.240369 -1.00417,-1.190625 -0.45218,0.09219 -3.3346,5.437928 -3.16723,5.873957 0.15003,0.390895 6.32227,0.382481 6.45269,-0.0088 z"
       id="path195" /></g></svg>
